<svg id="Layer_1" data-name="Layer 1" xmlns="http://www.w3.org/2000/svg" viewBox="0 0 1495.85 430.08"><defs><style>.cls-1{fill:#cdcaff;}.cls-2{fill:#dce9f6;}.cls-3{fill:#adc2e3;}.cls-4{fill:#808db4;}.cls-5{fill:#505f6e;}.cls-6{fill:#97accb;}.cls-7{fill:#576576;}.cls-8{fill:#647184;}.cls-9{fill:#f4d879;}.cls-10{fill:#747a89;}.cls-11{fill:#ebeff8;}.cls-12{fill:#e2eef8;}.cls-13{fill:#d4e3f4;}.cls-14{fill:#bacfea;}.cls-15{fill:#cde1ef;}.cls-16{fill:#aab9cd;}.cls-17{fill:#5c6766;}.cls-18{fill:#e7a43e;}.cls-19{fill:#d7e7f1;}.cls-20{fill:#8d94a2;}.cls-21{fill:#f6d459;}</style></defs><path class="cls-1" d="M1797.34,1615.6a11.4,11.4,0,0,1,3.86-.4,7.49,7.49,0,0,1,.5,3.87A17.71,17.71,0,0,1,1797.34,1615.6Z" transform="translate(-305.9 -1615.2)"/><path class="cls-2" d="M1263.51,1741.34c1.63-1.11,3.18-1.62,4.35-2.59,2.51-2.09,5.29-2.26,8.28-1.74,2,.35,4,.7,7,1.28,5.58,1.18,10.08,2.18,14.6,3.08,17.9,3.54,35.79,7.11,53.71,10.52,3.36.63,6.7,2,10.75,1.31,5.67,2,10.84,3.86,15.6,6-1.08.53-1.76,1-2.39.91-4.15-.43-8.31-.86-12.43-1.47-11.24-1.69-22.43-3.73-33.85-3.92-1.15,0-2.29-.35-3.44-.47-3-.3-6-.71-9-.81-4.18-.14-8.38.08-12.56-.06a41.55,41.55,0,0,0-18.3,3.76,132.28,132.28,0,0,0-23.78,13.14,270.49,270.49,0,0,0-27.75,23.21c-9.12,8.58-17.35,18.1-26,27.21-.32.34-.61.71-.9,1.07-5.71,7-11.36,14.09-17.16,21-10.13,12.14-19.34,25-28.54,37.8-1.19,1.67-1.89,3.68-3.35,5.67-17.16,3.29-33.79,6.46-50.42,9.6-3,.56-5.94,1-8.91,1.48-2.7.19-5.28,1.88-8.58.68a7.69,7.69,0,0,1,1.08-2.4c2.51-2.4,5.12-4.69,7.71-7,.52-.46,1.15-.79,1.66-1.26,6-5.46,11.93-11,18-16.38,6.73-6,13.56-11.93,20.34-17.88.7-.62,1.41-1.21,2.09-1.84,6.15-5.64,12.21-11.37,18.44-16.91,5.88-5.22,12-10.18,17.9-15.39s11.63-10.63,17.51-15.87c6.39-5.7,12.88-11.29,19.33-16.93.52-.46,1.08-.87,1.59-1.34,6.65-6.13,13.22-12.33,20-18.36,5.86-5.25,12-10.22,17.83-15.47C1257.17,1748.11,1260.15,1744.85,1263.51,1741.34Z" transform="translate(-305.9 -1615.2)"/><path class="cls-3" d="M1099.53,1897.69a81.49,81.49,0,0,1,8.46-1.77c16.63-3.14,33.26-6.31,51-9.61,5-.75,8.94-1.28,12.82-2q33.95-6.21,67.88-12.47,45.58-8.41,91.18-16.84c21.71-4,43.4-8.15,65.11-12.16,26.28-4.84,52.58-9.56,78.86-14.41,22.85-4.22,45.68-8.57,68.54-12.79a12.6,12.6,0,0,1,5.25.3c-2.77,2.33-5.85,2.49-8.77,3.11-12.48,2.66-25,5.24-37.47,7.87l-69.48,14.64c-18.61,3.92-37.24,7.78-55.86,11.73-16.34,3.47-32.66,7-49.5,10.52a5.79,5.79,0,0,0-5.46,2.87,55,55,0,0,0-6.93.28c-10.07,1.65-20.11,3.49-30.17,5.19q-16.45,2.79-32.93,5.46c-11,1.78-22,3.59-33,5.25s-22,3.13-33,4.71c-11.93,1.71-23.84,3.52-35.79,5.14-8.72,1.19-17.48,2.11-26.22,3.2-5.28.66-10.57,1.37-15.83,2.18C1105.43,1898.53,1102.7,1899,1099.53,1897.69Z" transform="translate(-305.9 -1615.2)"/><path class="cls-4" d="M1328.07,1863.83c16.33-3.51,32.65-7,49-10.52,18.62-4,37.25-7.81,55.86-11.73l69.48-14.64c12.49-2.63,25-5.21,37.47-7.87,2.92-.62,6-.78,9.18-3.13a3.65,3.65,0,0,1,2.62-.24c1.5.81,2.68,1.4,3.85,2q-33.16,10.23-66.35,20.47c-17,5.21-34.11,10.32-51.18,15.45-2.88.87-5.79,1.62-9.13,2.7a32.52,32.52,0,0,1-7.35,1.32,23.88,23.88,0,0,0-5.07-.53c-3.23.3-6.44.8-9.66,1.21-4.6.59-9.2,1.25-13.81,1.75-7.37.82-14.74,1.88-22.14,2.21-9.73.43-19.39,2.14-29.19,1.66-1.81-.09-3.65.63-5.49.86C1333.39,1865.14,1330.59,1865.64,1328.07,1863.83Z" transform="translate(-305.9 -1615.2)"/><path class="cls-5" d="M1204.11,1733.93c-7.45,1.34-14.35,2.39-21.12,4-6.46,1.5-12.79,3.56-19.75,5.55,1.64-3.94,4.14-6.44,6.11-9.26s4.27-5.36,5.78-8.54c-3.65-2.87-8-2.31-11.42-4.4-1.1-2.11-.27-4,1-5.92a5.33,5.33,0,0,1,1.86-.25c2.28.48,4.5,1.17,6.77,1.63,1.55.32,3.15.4,5.27.65.27-7.95-.46-15.54-.76-23.77,2.83,1.18,3.51,3.57,5,5.17s2.61,3.27,4,4.87q2.25,2.65,4.61,5.22c1.58,1.71,3.19,3.38,4.83,5q2.19,2.23,4.48,4.4,2.53,2.39,5.15,4.69c1.57,1.39,3.18,2.72,4.76,4.09s3.43,3,5.72,5A78.54,78.54,0,0,1,1204.11,1733.93Z" transform="translate(-305.9 -1615.2)"/><path class="cls-6" d="M1327.56,1863.83c3,1.81,5.83,1.31,8.59,1,1.84-.23,3.68-1,5.49-.86,9.8.48,19.46-1.23,29.19-1.66,7.4-.33,14.77-1.39,22.14-2.21,4.61-.5,9.21-1.16,13.81-1.75,3.22-.41,6.43-.91,9.66-1.21a16.36,16.36,0,0,1,4.56.56c-4.11,3.17-9.44,4-14.48,5.55-21.89,6.72-43.84,13.21-65.78,19.78l-2,.6c-6.78,2-7.44,1.75-10.79-4.75-1.91-3.69-3.68-7.46-5.69-11.67A5.06,5.06,0,0,1,1327.56,1863.83Z" transform="translate(-305.9 -1615.2)"/><path class="cls-7" d="M1126.37,1713.07c-5.37-1.24-10.55-1.12-15.56-3.38.29-1.91.55-3.67.79-5.21.72-.37,1.15-.79,1.51-.73,5.21.82,10.41,1.71,15.76,2.6C1129.56,1709.32,1129.57,1711.58,1126.37,1713.07Z" transform="translate(-305.9 -1615.2)"/><path class="cls-7" d="M1138.16,1709.68a9.09,9.09,0,0,1,4.35-.47c4.26.89,8.49,2,12.52,2.93,1,2.63.09,4.46-.87,6.26-5.21,0-10.5-1.16-17.08-3.77A46.81,46.81,0,0,1,1138.16,1709.68Z" transform="translate(-305.9 -1615.2)"/><path class="cls-7" d="M1091.54,1707.71c-2.57-.4-4.55-.85-6.39-1.27a5.74,5.74,0,0,1,.89-6.4c5.67.48,10.9,1.2,15.86,1.89,1.56,2.46.88,4.32-.38,6.37C1098.39,1709.28,1095.3,1707.7,1091.54,1707.71Z" transform="translate(-305.9 -1615.2)"/><path class="cls-8" d="M431.86,2042.36a8,8,0,0,1-1.22-.24c-1.25-.43-2.83-.51-2.9-2.35-.06-1.42,1.23-2.11,3.72-1.8,4.55.57,9.08,1.27,13.94,2,.07,1.18.12,2.21.2,3.64C440.86,2044.33,436.67,2042.74,431.86,2042.36Z" transform="translate(-305.9 -1615.2)"/><path class="cls-7" d="M409.71,2032.85l9.51,2.83c-.1,1.11-.19,2.12-.31,3.55a60.34,60.34,0,0,1-16.15-4.74,1.84,1.84,0,0,1-.71-1.68c.37-.66,1.27-1.57,1.83-1.49A48.6,48.6,0,0,1,409.71,2032.85Z" transform="translate(-305.9 -1615.2)"/><path class="cls-8" d="M383.91,2027a54.32,54.32,0,0,1-5.76-3.39,2.35,2.35,0,0,1-.39-2.31,2.49,2.49,0,0,1,2.28-.79c4.77,2.19,9.45,4.56,14.3,6.94-.35,1.22-.59,2-.87,3C389.87,2030.56,387.3,2028.37,383.91,2027Z" transform="translate(-305.9 -1615.2)"/><path class="cls-8" d="M366.28,2016.68c-4.12-1.77-7.15-4.58-10.26-7.23a2.76,2.76,0,0,1-.16-4.36c.6.06,1.44-.11,1.91.23,4.27,3.15,8.48,6.37,12.68,9.62.25.2.18.83.2,1.7C369.16,2018.35,367.86,2017.67,366.28,2016.68Z" transform="translate(-305.9 -1615.2)"/><path class="cls-7" d="M459,2040.46c2,.18,4.06.41,6.1.53,1.59.09,3.19,0,4.78.08,1.26,0,2.28.51,2.38,1.88s-.76,2.06-2.06,2.15c-1.13.08-2.28.08-3.41.08-2.06,0-4.11,0-6.76.09a16.9,16.9,0,0,1-4.48-.81c-.5-.19-1.16-1.09-1.06-1.49a3.85,3.85,0,0,1,1.41-2c.47-.34,1.29-.2,2.49-.37C458.93,2040.54,459,2040.46,459,2040.46Z" transform="translate(-305.9 -1615.2)"/><path class="cls-9" d="M459.1,2039.85c-.09.61-.17.69-.22.7a9.31,9.31,0,0,1,.12-1.88c.09-.63.22-.68.28-.66A11.69,11.69,0,0,1,459.1,2039.85Z" transform="translate(-305.9 -1615.2)"/><path class="cls-8" d="M338,1986.25c5.18,3.23,8.27,8.13,12.63,12.61-1.25.7-2.1,1.49-3,1.6a3.35,3.35,0,0,1-2.47-1c-2.78-3-5.52-6.14-8.05-9.4C336.24,1989.06,336.12,1987.48,338,1986.25Z" transform="translate(-305.9 -1615.2)"/><path class="cls-8" d="M324.08,1963.84a74.37,74.37,0,0,1,9,14.54c-1.32,1.78-2.94,1.86-3.72.6-2.54-4.09-4.8-8.36-7-12.62C321.67,1965.16,322.27,1964.16,324.08,1963.84Z" transform="translate(-305.9 -1615.2)"/><path class="cls-8" d="M320,1953.11c-.09,1.24-.07,2.43-.57,2.73a2.37,2.37,0,0,1-2.26-.56,67.25,67.25,0,0,1-5.39-15.17c1.34-1.27,2.62-1.41,3.27-.28a33.3,33.3,0,0,1,2,5.11C317.93,1947.52,318.89,1950.09,320,1953.11Z" transform="translate(-305.9 -1615.2)"/><path class="cls-8" d="M307.85,1865.83c.46-2.1.7-3.72,1.21-5.25a2,2,0,0,1,1.62-.94c.49,0,1.36.87,1.31,1.23-.82,5.25-1.74,10.48-2.71,15.7,0,.29-.84.74-1.06.64-.56-.25-1.43-.81-1.4-1.2C307,1872.78,307.4,1869.57,307.85,1865.83Z" transform="translate(-305.9 -1615.2)"/><path class="cls-8" d="M311.47,1924.46c.19,2.13.35,3.71.36,5.28,0,.26-.64.66-1,.73a2.42,2.42,0,0,1-1.26-.34.93.93,0,0,1-.42-.54c-1.49-5.32-2.73-10.67-2.35-16.12,1.55-.84,2.62-.51,2.91.88C310.36,1917.51,310.83,1920.72,311.47,1924.46Z" transform="translate(-305.9 -1615.2)"/><path class="cls-8" d="M330.26,1809.89c.56.76,1,1.56.81,2-2.15,4.34-4.37,8.65-6.73,12.88-.31.57-1.47.65-2.24,1-.21-.62-.77-1.42-.56-1.84C323.93,1819,325.57,1813.6,330.26,1809.89Z" transform="translate(-305.9 -1615.2)"/><path class="cls-10" d="M341.81,1791a15.37,15.37,0,0,1,2.14-2.42,4.94,4.94,0,0,1,1.87-.44c.11.82.62,1.93.27,2.42-2.8,4-5.73,7.81-8.71,11.62a2,2,0,0,1-1.82.43,1.44,1.44,0,0,1-.55-2.29C337.12,1797.26,339.34,1794.31,341.81,1791Z" transform="translate(-305.9 -1615.2)"/><path class="cls-8" d="M313.88,1842.36c1.39-3.16,1.59-6.32,4.21-8.9.62.88,1.59,1.69,1.45,2.15-1.47,4.83-3.09,9.62-4.77,14.38a2.43,2.43,0,0,1-1.54.9c-.54-.58-1.32-1.44-1.2-2.05C312.41,1846.81,313.14,1844.85,313.88,1842.36Z" transform="translate(-305.9 -1615.2)"/><path class="cls-10" d="M421.74,1738.33c-1.61.4-2.73.6-3.12-1.37a51.43,51.43,0,0,1,16.07-5.35c.26,0,.7.9,1.42,1.88C431.23,1735.14,426.71,1736.68,421.74,1738.33Z" transform="translate(-305.9 -1615.2)"/><path class="cls-8" d="M399.18,1744.91c3.17-1.48,5.87-2.82,8.64-4a7.2,7.2,0,0,1,2.52,0c-.27.94-.26,1.6-.51,1.73q-7.12,3.5-14.32,6.84c-.24.11-.75-.36-1.41-.7C394.77,1746.41,397.18,1746.25,399.18,1744.91Z" transform="translate(-305.9 -1615.2)"/><path class="cls-8" d="M354.67,1781c-1,.45-1.75.86-2.21.63s-.72-1.46-.5-1.67q5.63-5.57,11.46-10.94c.25-.23,1.18.28,2.2.55C362.74,1774.24,358.19,1776.85,354.67,1781Z" transform="translate(-305.9 -1615.2)"/><path class="cls-10" d="M382.74,1757.76c-3.27,2.23-6.1,4.23-9,6.1a1.82,1.82,0,0,1-1.73-.44,1.77,1.77,0,0,1,.27-1.73q6.21-4.39,12.58-8.57c.36-.24,1.17.2,1.94.35C386.54,1755.91,384.43,1756.34,382.74,1757.76Z" transform="translate(-305.9 -1615.2)"/><path class="cls-7" d="M308.56,1895.79c-.23,3.06.79,5.66-1,8.16-.65-.46-1.57-.81-1.58-1.17-.1-5.08-.1-10.16-.05-15.24,0-.32.54-.63.82-.94,1.18-.12,1.69.62,1.72,1.6C308.56,1890.52,308.54,1892.84,308.56,1895.79Z" transform="translate(-305.9 -1615.2)"/><path class="cls-11" d="M1551.35,1815.47c-.55,0-1.1,0-2.06,0a39.74,39.74,0,0,0-5.9.15c-22.86,4.22-45.69,8.57-68.54,12.79-26.28,4.85-52.58,9.57-78.86,14.41-21.71,4-43.4,8.14-65.11,12.16q-45.59,8.46-91.18,16.84-33.95,6.26-67.88,12.47c-3.88.7-7.8,1.23-12.29,1.85a14,14,0,0,1,2.23-5.53c9.2-12.83,18.41-25.66,28.54-37.8,5.8-6.94,11.45-14,17.16-21,.29-.36.58-.73.9-1.07,8.62-9.11,16.85-18.63,26-27.21a270.49,270.49,0,0,1,27.75-23.21,132.28,132.28,0,0,1,23.78-13.14,41.55,41.55,0,0,1,18.3-3.76c4.18.14,8.38-.08,12.56.06,3,.1,6,.51,9,.81,1.15.12,2.29.45,3.44.47,11.42.19,22.61,2.23,33.85,3.92,4.12.61,8.28,1,12.43,1.47.63.06,1.31-.38,2.84-.88a3.79,3.79,0,0,1,2.8.38c.88,1.77,1.81,1.61,3.37.62,19.69,3.8,38.78,7.7,57.94,11.29,36.26,6.78,72.55,13.39,109,20.42,1.37,2,2.72,1.82,4.59.69a5.19,5.19,0,0,1,2.4.62c1.37,2.08,2.73,1.92,4.61.68a4.8,4.8,0,0,1,2.45.7,6.43,6.43,0,0,0,2.51,1.83c11.17,2.47,22.36,4.87,33.54,7.28-2.22,1.8-4.88,2.32-7.61,2.7-1.33.18-2.65.51-5,1.08-2,.35-2.91.26-3.81.43q-15.76,2.89-31.5,5.93C1552.77,1814.09,1552.09,1814.94,1551.35,1815.47Z" transform="translate(-305.9 -1615.2)"/><path class="cls-2" d="M1374,1675.21c4,1.81,8.14,3.42,12,5.46,12.33,6.5,24.59,13.13,36.85,19.76,13.28,7.18,26.53,14.43,40,22.45-.89,4.12-3.51,6-6.44,7.46q-10.48,5.31-21,10.55l-8,4.06a7.92,7.92,0,0,0-3.71,4.23c-8.61-2.24-16.68-4.45-24.74-6.68q-41-11.36-82-22.73a47,47,0,0,1-8.5-3.19c.83-1.34,1.37-2.54,2.28-3,7.34-3.89,14.74-7.67,22.14-11.45,4.92-2.52,9.89-4.95,14.79-7.5,7-3.63,13.89-7.34,20.83-11,2-1.07,4-2.2,6.15-3.38C1374.46,1678.34,1374.25,1676.77,1374,1675.21Z" transform="translate(-305.9 -1615.2)"/><path class="cls-12" d="M1373.71,1674.87a34.1,34.1,0,0,1,1,5.33c-2.15,1.18-4.14,2.31-6.15,3.38-6.94,3.68-13.86,7.39-20.83,11-4.9,2.55-9.87,5-14.79,7.5-7.4,3.78-14.8,7.56-22.14,11.45-.91.49-1.45,1.69-2.81,3a154.41,154.41,0,0,1-18.07-4.2c-4.17-2-8.17-2.26-12.21-2.31.53-3.9.92-7.82,1.62-11.69,2.46-13.45,5.06-26.88,7.54-40.32q1.82-9.91,3.41-19.87a16.91,16.91,0,0,1,2.4-6.82,19.77,19.77,0,0,1,3.84,1.18q14.4,7.73,28.74,15.6c11.78,6.49,23.51,13.06,35.28,19.56,2,1.12,4.18,2,6.22,3.12C1369,1672,1371.17,1673.28,1373.71,1674.87Z" transform="translate(-305.9 -1615.2)"/><path class="cls-13" d="M1424.29,1749.21a5.54,5.54,0,0,1,3.17-4.26l8-4.06q10.5-5.27,21-10.55c2.93-1.48,5.55-3.34,6.78-7.13,14.17,7,28.23,14.51,42.31,22,3.47,1.84,7.06,3.47,10.5,5.35,11.55,6.3,23.06,12.68,34.55,19.66a12.8,12.8,0,0,1-3.08,2.06c-3.91,2.53-8.6,3.94-12.12,7.77-4.14-1-7.76-1.81-11.34-2.79q-42.6-11.78-85.19-23.6C1434,1752.25,1429.16,1750.68,1424.29,1749.21Z" transform="translate(-305.9 -1615.2)"/><path class="cls-14" d="M1277.8,1710.58a18.15,18.15,0,0,1,12,2.11c1,1.28,1.5,2.11,2.24,2.5,10.08,5.33,20.19,10.59,30.29,15.87l34.64,18.1c1.86,1,3.8,1.82,4.71,3.93-3.55.82-6.89-.57-10.25-1.2-17.92-3.41-35.81-7-53.71-10.52-4.52-.9-9-1.9-14-3.07-1.14-3.82-1.75-7.43-2.47-11C1280.19,1721.89,1279,1716.52,1277.8,1710.58Z" transform="translate(-305.9 -1615.2)"/><path class="cls-15" d="M1536,1780.08c3-3.9,7.67-5.31,11.58-7.84.93-.6,2-1,3.42-1.72a49.65,49.65,0,0,1,8.55,3.32c2.26,1.12,4.36,2.58,6.61,3.76,12.65,6.65,25.55,12.85,37.45,20.86a38.33,38.33,0,0,0,5.3,2.44c-1.94,2.26-4.19,2.48-6.89,2.85-11.69-2.37-22.88-4.77-34-7.24a2.94,2.94,0,0,1-1.92-1.9c4.61.16,8.86.9,13.14,1.45,5.62.74,11.1,2.63,17.14,2.35a17.57,17.57,0,0,0,3.11.94c0-.3.09-.6.14-.91a18.18,18.18,0,0,1-3.91-.63,28.84,28.84,0,0,0-4.91-2c-10.73-3-21.49-5.79-32.19-8.83C1551,1784.79,1543.51,1782.38,1536,1780.08Z" transform="translate(-305.9 -1615.2)"/><path class="cls-3" d="M1551.67,1815.7a3.33,3.33,0,0,1,1.91-1.77q15.74-3.06,31.5-5.93a24.59,24.59,0,0,1,3.38-.12c-6.17,2.28-12.91,4.68-19.73,6.82-4,1.24-8,2-12.64,3A28,28,0,0,1,1551.67,1815.7Z" transform="translate(-305.9 -1615.2)"/><path class="cls-5" d="M1011.75,1706.16a16.92,16.92,0,0,1-5.3-.35,4,4,0,0,1-2-2.38,2.51,2.51,0,0,1,1.55-3.36,45.57,45.57,0,0,1,5.9-1.07c3.5-.09,6.42-.09,9.84-.09.24,1.6.49,3.26.76,5.11C1019.06,1705.68,1015.6,1705.41,1011.75,1706.16Z" transform="translate(-305.9 -1615.2)"/><path class="cls-7" d="M1031.85,1698.37c5.7-1.08,10.94-.87,16.18-.62a5.42,5.42,0,0,1,.09,6.29,74.62,74.62,0,0,1-15.87.18C1030.56,1702.32,1030.72,1700.57,1031.85,1698.37Z" transform="translate(-305.9 -1615.2)"/><path class="cls-7" d="M1068.19,1698.34l7.25.88a5.42,5.42,0,0,1-.12,5.63c-.27.47-1.15.6-2.74.69-3.52-.31-6-.43-8.58-.54l-5.2-.59c-1.18-5.54-1.18-5.54,3.58-6.4C1065,1698.25,1066.59,1698.3,1068.19,1698.34Z" transform="translate(-305.9 -1615.2)"/><path class="cls-16" d="M1064.47,1705.26a41.81,41.81,0,0,1,7.61.32A44.71,44.71,0,0,1,1064.47,1705.26Z" transform="translate(-305.9 -1615.2)"/><path class="cls-16" d="M1067.77,1698.1a17.29,17.29,0,0,1-4.81-.11A17.29,17.29,0,0,1,1067.77,1698.1Z" transform="translate(-305.9 -1615.2)"/><path class="cls-17" d="M546.4,2029.36c1.84-.36,3.18-.56,4.67-.79.34,1.11.59,2,.95,3.15-5.2,3-10.94,3.53-16.31,4.93-1.9-3-1.89-3.82.11-4.43C539.15,2031.22,542.53,2030.41,546.4,2029.36Z" transform="translate(-305.9 -1615.2)"/><path class="cls-17" d="M571.19,2021.49a28.72,28.72,0,0,1,3.68-.88,2,2,0,0,1,2.37,1.8,2.62,2.62,0,0,1-.89,2.2c-1.3.81-2.82,1.25-4.63,2.11-3.7,1.1-7,1.94-10.27,2.75-1.75-3-1.72-3.77.19-4.51C564.65,2023.8,567.71,2022.78,571.19,2021.49Z" transform="translate(-305.9 -1615.2)"/><path class="cls-17" d="M498.23,2039c1.25,3.29,1,4.2-1.44,4.45-4.55.47-9.12.75-13.69.92-.54,0-1.54-1.12-1.56-1.75a2.49,2.49,0,0,1,1.38-2c3.85-.56,7.73-.88,12.24-1.44C496.53,2039,497.24,2039,498.23,2039Z" transform="translate(-305.9 -1615.2)"/><path class="cls-17" d="M526.15,2037.75c-5.17,2.58-10.75,3.22-16.35,3.72-1.47.13-1.75-1.12-2.19-2.63,5.34-2.74,11.19-2.94,17-4A32.06,32.06,0,0,1,526.15,2037.75Z" transform="translate(-305.9 -1615.2)"/><path class="cls-6" d="M1535.45,1780c8.06,2.37,15.55,4.78,23.11,6.93,10.7,3,21.46,5.87,32.19,8.83a30,30,0,0,1,4.92,2,2.64,2.64,0,0,0,.38.33c-5.77.56-11.25-1.33-16.87-2.07-4.28-.55-8.53-1.29-13.38-1.88a10.25,10.25,0,0,1-3.16-.49,36.1,36.1,0,0,0-4.42-.74,18.08,18.08,0,0,1-2.59-.56,36,36,0,0,0-4.41-.74c-36.28-6.69-72.57-13.3-108.83-20.08-19.16-3.59-38.25-7.49-58.25-11.53-1.64-.43-2.41-.56-3.18-.7-.6-.12-1.2-.23-2.26-.38-5.63-1.9-10.8-3.77-16.47-5.76-1.41-2.22-3.35-3.07-5.21-4l-34.64-18.1c-10.1-5.28-20.21-10.54-30.29-15.87a5.22,5.22,0,0,1-1.81-2.21c5.72,1.08,11.38,2.53,17.58,4,3.4,1,6.25,2,9.15,2.77q41,11.38,82,22.73c8.06,2.23,16.13,4.44,24.74,6.68,5.41,1.5,10.27,3.07,15.17,4.44q42.58,11.84,85.19,23.6C1527.69,1778.2,1531.31,1779,1535.45,1780Z" transform="translate(-305.9 -1615.2)"/><path class="cls-15" d="M1558.39,1793.3a8.16,8.16,0,0,1,3.8.37C1561.12,1795.22,1559.76,1795.38,1558.39,1793.3Z" transform="translate(-305.9 -1615.2)"/><path class="cls-15" d="M1551.4,1792a8.25,8.25,0,0,1,3.78.38C1554.12,1793.81,1552.77,1794,1551.4,1792Z" transform="translate(-305.9 -1615.2)"/><path class="cls-2" d="M1381.08,1759.66a4.19,4.19,0,0,1,2.5.34C1382.89,1761.27,1382,1761.43,1381.08,1759.66Z" transform="translate(-305.9 -1615.2)"/><path class="cls-6" d="M1596,1798.15l3.53.29c0,.31-.09.61-.14.91a17.57,17.57,0,0,1-3.11-.94C1596.05,1798.13,1596,1798.14,1596,1798.15Z" transform="translate(-305.9 -1615.2)"/><path class="cls-17" d="M591.6,2019.34a27.07,27.07,0,0,1-4.42,1.23,1.9,1.9,0,0,1-1.51-1.09,5.15,5.15,0,0,1,.18-2.54c.09-.34.64-.65,1-.82,4-1.69,8.05-3.41,12.12-5,2-.76,2.32-.37,3.44,3.09C599.45,2016.69,595.62,2017.65,591.6,2019.34Z" transform="translate(-305.9 -1615.2)"/><path class="cls-17" d="M625.4,2004.26c-4,2-7.71,3.68-11.39,5.36-1.61.73-3,.81-4.47-1.24a2.05,2.05,0,0,1-.07-1.59c1.94-1.32,3.57-2.24,5.19-3.16l10.09-4.43C626.73,2000.65,627.54,2002,625.4,2004.26Z" transform="translate(-305.9 -1615.2)"/><path class="cls-17" d="M647.45,1991.84c-4.22,2.36-7.8,4.9-12.22,6.62a11,11,0,0,1-1.27-1.8,12.76,12.76,0,0,1-.44-2.38c4.12-2.45,8.27-4.92,12.43-7.36,1.28-.75,2.54-1.07,3.66.36s.81,2.13-1.17,3.92A7.74,7.74,0,0,1,647.45,1991.84Z" transform="translate(-305.9 -1615.2)"/><path class="cls-17" d="M954.88,1711.43c4.61-1.4,8.81-2.57,13.41-3.86.75,1.78,1.41,3.37,2.23,5.35-4.1,2.4-8.54,2.88-12.9,4.94-4.25.44-4.63.26-5.37-2C951.6,1713.92,951.75,1713.64,954.88,1711.43Z" transform="translate(-305.9 -1615.2)"/><path class="cls-17" d="M980.69,1711.37c-2.21-.72-2.66-2.39-3-4.12s.62-2.38,2.45-2.94c3.71-.83,7-1.49,10.87-2.33a5.91,5.91,0,0,1,2.5.17c1.77.68,2.1,2.15,1.86,3.84a2.88,2.88,0,0,1-2.65,2.59c-1.32.2-2.66.28-4.4.54C985.69,1709.88,983.45,1710.51,980.69,1711.37Z" transform="translate(-305.9 -1615.2)"/><path class="cls-17" d="M927.06,1725.54c.21-2.22,1.7-2.93,3.17-3.62,3.34-1.59,6.7-3.14,10.42-4.94,2.84-.62,3.52,1.15,4.13,3,.74,2.15-1,2.77-2.74,3.92-4.39,1.81-8.37,3.28-12.53,4.83C928.74,1727.72,928.05,1726.87,927.06,1725.54Z" transform="translate(-305.9 -1615.2)"/><path class="cls-17" d="M752.22,1901.31a2.43,2.43,0,0,1-.12,2.17c-2.42,2.83-4.48,5.19-6.55,7.55l-5,4a39.21,39.21,0,0,1-3.38-3.2,24.14,24.14,0,0,1,3.56-4.39c2.75-2.89,4.9-5.14,7.06-7.39.92-1,2-.73,3.07-.36A19.55,19.55,0,0,0,752.22,1901.31Z" transform="translate(-305.9 -1615.2)"/><path class="cls-5" d="M733.34,1920.35c0,2.5-1.42,4-2.92,5.47-2.48,2.4-4.95,4.8-7.54,7.08a2.58,2.58,0,0,1-3.66-.69,2.14,2.14,0,0,1,.26-3.07c2.19-2.33,4.39-4.65,6.69-7.43,1.05-1,2.12-1.32,2.92-2C730.6,1918.44,731.8,1918.94,733.34,1920.35Z" transform="translate(-305.9 -1615.2)"/><path class="cls-7" d="M903.39,1738.14a124.49,124.49,0,0,1,14.12-9.59,5.45,5.45,0,0,1,2.51.56l1,3.71c-.75,2.16-3.78,1.9-3.91,4.79a36.83,36.83,0,0,1-5.15,1.9,54,54,0,0,0-5.19,2.76C905.64,1740.94,904.63,1739.76,903.39,1738.14Z" transform="translate(-305.9 -1615.2)"/><path class="cls-5" d="M883,1756.39a15.06,15.06,0,0,1-.37-5,55.25,55.25,0,0,1,7-4.94,20.36,20.36,0,0,1,4.85-2.42c.76-.2,2.11.65,2.74,1.4.42.51.22,1.73,0,2.54a3.5,3.5,0,0,1-1.3,1.55c-3.06,2.39-6.09,4.84-9.31,7C885.85,1757,884.46,1756.58,883,1756.39Z" transform="translate(-305.9 -1615.2)"/><path class="cls-18" d="M918.84,1725.26c1.88-1.29,3.92-1.27,6.39-.46a17.39,17.39,0,0,1-4.84.78A4.35,4.35,0,0,1,918.84,1725.26Z" transform="translate(-305.9 -1615.2)"/><path class="cls-19" d="M918.47,1725.38a2.67,2.67,0,0,1,1.37.31,6.75,6.75,0,0,1,.21,2.87c-.6.29-1.16,0-2.18-.34a3.05,3.05,0,0,1-.46-2C917.64,1725.7,917.87,1725.6,918.47,1725.38Z" transform="translate(-305.9 -1615.2)"/><path class="cls-17" d="M689.88,1962.71c-3.15,2.32-6,4.25-9.17,6.39l-2.83-3c2.09-3.26,5.36-4.72,8.38-7.34a1.94,1.94,0,0,0,.73-.75.42.42,0,0,1,.14,0c.73-.58,1.43-1.13,2.09-1.73a3.1,3.1,0,0,1,4.22-.34,16.89,16.89,0,0,0,2.43,1.1h1.71l-.11-.8c-.85.22-2.27.21-2.46.69C694.05,1959.36,691.94,1960.66,689.88,1962.71Z" transform="translate(-305.9 -1615.2)"/><path class="cls-17" d="M666,1973.58c1.72-1,3.14-1.62,4.74-2.35.8,1,1.48,1.82,2,2.5-.21.76-.19,1.34-.47,1.56-1.93,1.57-3.92,3-6.17,4.9-2.64,1.61-5,2.88-7.55,4.25l-2.11-2.52c.5-2.7,2.74-3.23,4.27-4.44S664,1975.1,666,1973.58Z" transform="translate(-305.9 -1615.2)"/><path class="cls-19" d="M855.09,1727.68a17.68,17.68,0,0,1,4.42-.44C858.6,1728.31,857.07,1728.47,855.09,1727.68Z" transform="translate(-305.9 -1615.2)"/><path class="cls-5" d="M710.89,1938.09c1.36.48,2.52.91,3.07,1.74a2.59,2.59,0,0,1-.57,2.4q-5.08,4.59-10.44,8.86a3.15,3.15,0,0,1-2.53-.07,2.29,2.29,0,0,1-.46-4C703.39,1944,706.93,1941.15,710.89,1938.09Z" transform="translate(-305.9 -1615.2)"/><path class="cls-20" d="M687,1957.88c0,.15-.21.58-.33.61s0-.51.11-.77S687,1957.73,687,1957.88Z" transform="translate(-305.9 -1615.2)"/><path class="cls-17" d="M755.53,1890.89c3.21-3.89,6.3-7.36,9.6-11.24,2.21-.57,3.67.27,4.82,2.34-.45,2.88-3.41,4.34-5,7.2-1.65,1.8-3.06,3.25-4.53,4.62-1.1,1-2.37,1.14-4.17.18A5.67,5.67,0,0,1,755.53,1890.89Z" transform="translate(-305.9 -1615.2)"/><path class="cls-17" d="M791.89,1847.54c2.92-3.41,5.68-6.42,8.76-9.79l4,2.74c-2.76,5.43-6.93,9.32-11,13.81-.61.13-.81,0-1-.1C789.39,1851.58,789.39,1851.58,791.89,1847.54Z" transform="translate(-305.9 -1615.2)"/><path class="cls-17" d="M784.65,1866c-2.29,2.73-4.37,5-6.47,7.33a2.91,2.91,0,0,1-4,.82,4.62,4.62,0,0,1-1.33-3.12c3.76-4.69,7.22-8.78,11-12.83.27,0,.83,0,.83,0,.87,1,1.75,2.09,2.84,3.37C786.6,1863,785.73,1864.26,784.65,1866Z" transform="translate(-305.9 -1615.2)"/><path class="cls-21" d="M784.67,1825.72c-.5.38-1.06.38-2.08-.09a5,5,0,0,1-.44-2.37l1,0A6.18,6.18,0,0,1,784.67,1825.72Z" transform="translate(-305.9 -1615.2)"/><path class="cls-17" d="M844,1787.37c2.49-2.61,5.48-4.32,6.49-8.22a7.08,7.08,0,0,1,2.08-.87c2.33-1,3.94,0,5.18,1.84s2.35,3.81,3.7,6.15c-2.56.67-5.3.9-8.53,1.48-2.49,2.14-4.5,3.93-6.78,6-1.89-.91-3.57-1.76-3.61-4.64A12,12,0,0,1,844,1787.37Z" transform="translate(-305.9 -1615.2)"/><path class="cls-5" d="M863.6,1773.74c-2-3.12-2.07-3.66-.58-5,3.42-3.11,6.92-6.12,10.17-9,2.6.1,3.74,1.34,4.24,3.29-.13.49-.11,1.08-.39,1.34-3.06,2.83-6.16,5.63-9.27,8.4A3.62,3.62,0,0,1,863.6,1773.74Z" transform="translate(-305.9 -1615.2)"/><path class="cls-17" d="M811.62,1833c-2.69.87-3.64-.66-4.68-2.6,2.92-4.81,6.86-8.88,11-13.32l4,3.13C819.13,1825,815.29,1828.64,811.62,1833Z" transform="translate(-305.9 -1615.2)"/><path class="cls-17" d="M836.3,1806.4a17.67,17.67,0,0,0-3.31,2.13c-1.6,1.61-3,3.45-4.67,5.47l-4.41-3.67c3.31-5.07,7.51-8.94,11.56-13.47l4.14,3.19a40.91,40.91,0,0,0-3.31,5.89C836.4,1806.49,836.3,1806.4,836.3,1806.4Z" transform="translate(-305.9 -1615.2)"/></svg>